<svg xmlns="http://www.w3.org/2000/svg" width="1200" height="630" fill="none" viewBox="0 0 1200 630">
  <defs>
    <radialGradient id="aqua" cx="0" cy="0" r="1" gradientTransform="matrix(360 0 0 300 335 240)" gradientUnits="userSpaceOnUse">
      <stop stop-color="#4FE7EE" stop-opacity=".34"/>
      <stop offset="1" stop-color="#4FE7EE" stop-opacity="0"/>
    </radialGradient>
    <radialGradient id="blush" cx="0" cy="0" r="1" gradientTransform="matrix(300 0 0 260 835 380)" gradientUnits="userSpaceOnUse">
      <stop stop-color="#FFB9CF" stop-opacity=".34"/>
      <stop offset="1" stop-color="#FFB9CF" stop-opacity="0"/>
    </radialGradient>
    <linearGradient id="tile" x1="0" x2="1" y1="0" y2="1">
      <stop stop-color="#F8FDFF"/>
      <stop offset=".45" stop-color="#EAF8FF"/>
      <stop offset="1" stop-color="#A9D6EB"/>
    </linearGradient>
    <linearGradient id="pointer" x1="0" x2="1" y1="0" y2="1">
      <stop stop-color="#F6FFFF"/>
      <stop offset=".32" stop-color="#4FE7EE"/>
      <stop offset=".66" stop-color="#3478F6"/>
      <stop offset="1" stop-color="#FFB9CF"/>
    </linearGradient>
    <filter id="shadow" x="-30%" y="-30%" width="160%" height="170%">
      <feDropShadow dx="0" dy="28" stdDeviation="28" flood-color="#3478F6" flood-opacity=".18"/>
      <feDropShadow dx="0" dy="8" stdDeviation="12" flood-color="#16212B" flood-opacity=".12"/>
    </filter>
  </defs>
  <rect width="1200" height="630" fill="#FAFCFF"/>
  <rect width="1200" height="630" fill="url(#aqua)"/>
  <rect width="1200" height="630" fill="url(#blush)"/>
  <g filter="url(#shadow)" transform="translate(112 135)">
    <rect width="220" height="220" rx="54" fill="url(#tile)" opacity=".84"/>
    <rect x="9" y="9" width="202" height="202" rx="48" stroke="#fff" stroke-opacity=".7" stroke-width="7"/>
    <rect width="220" height="220" rx="54" stroke="#A9D6EB" stroke-width="7"/>
    <path fill="url(#pointer)" stroke="#F7FFFF" stroke-linejoin="round" stroke-width="16" d="M94 58c-8-5-19 .2-21 9-9 39-6 87 2 107 4 11 17 14 25 7l34-29c6-5 13-8 21-7l39 1c16 .5 24-20 12-30L94 58Z"/>
  </g>
  <text x="390" y="260" fill="#16212B" font-family="Inter, ui-sans-serif, -apple-system, BlinkMacSystemFont, sans-serif" font-size="82" font-weight="700" letter-spacing="-2">
    Clicky
  </text>
  <text x="392" y="325" fill="#3478F6" font-family="Cormorant Garamond, Georgia, serif" font-size="54" font-style="italic">
    stays next to your cursor
  </text>
  <text x="394" y="385" fill="#5D7283" font-family="Inter, ui-sans-serif, -apple-system, BlinkMacSystemFont, sans-serif" font-size="25">
    Voice-first, screen-aware guidance for real software.
  </text>
  <path d="M958 186c42 30 87 82 90 146 4 75-48 128-119 134" stroke="#4FE7EE" stroke-linecap="round" stroke-width="8" opacity=".5"/>
  <path d="M980 395l48 12-35 33-13-45Z" fill="#3478F6" opacity=".9"/>
</svg>
